<svg width="939" height="140" viewBox="0 0 939 140" fill="none" xmlns="http://www.w3.org/2000/svg">
<path d="M43 33.857H106.297C106.297 33.857 93.5671 21.173 75.1038 22.1852C63.5342 23.0714 52.4299 27.1086 43 33.857Z" fill="#003C3D"/>
<path d="M878.879 33.857H815.499C815.499 33.857 828.229 21.173 846.692 22.1852C858.29 23.0566 869.425 27.0944 878.879 33.857Z" fill="#003C3D"/>
<path d="M833.859 17H87.937C71.4687 17.3321 55.6105 23.2809 43 33.857C118.53 -9.04988 127.658 122.274 181.93 122.274H739.969C794.221 122.274 803.349 -9.04988 878.879 33.857C866.246 23.2633 850.356 17.3133 833.859 17Z" fill="url(#paint0_linear_138_493)"/>
<path d="M181.847 122.274H739.969C786.541 122.274 799.871 25.4698 850.521 25.1806C846.992 25.1135 843.47 25.5165 840.048 26.3788C835.601 27.641 831.367 29.5555 827.484 32.0598C819.957 37.3177 813.319 43.7405 807.82 51.0859C796.477 65.4226 787.576 81.412 776.606 95.6041C771.488 102.803 765.19 109.088 757.977 114.196C752.687 117.736 746.482 119.666 740.114 119.753H733.304L678.825 119.154C606.193 118.411 533.54 118.287 460.908 118.204C388.276 118.121 315.603 118.411 242.971 119.175L188.492 119.753H181.682C179.596 119.729 177.517 119.507 175.472 119.092C171.322 118.211 167.376 116.557 163.839 114.217C156.633 109.102 150.336 102.817 145.211 95.6248C134.24 81.4326 125.34 65.4433 113.997 51.1065C108.49 43.7607 101.845 37.338 94.3123 32.0804C90.4733 29.6055 86.2881 27.7119 81.893 26.4614C78.511 25.6095 75.0312 25.2067 71.5436 25.2632C121.924 25.4698 135.254 122.274 181.847 122.274Z" fill="url(#paint1_linear_138_493)"/>
<path d="M302.54 90.6C298.74 90.6 295.46 89.98 292.7 88.74C289.98 87.46 287.86 85.62 286.34 83.22C284.86 80.78 284.04 77.82 283.88 74.34C283.84 72.62 283.82 70.8 283.82 68.88C283.82 66.92 283.84 65.06 283.88 63.3C284.04 59.9 284.88 57.02 286.4 54.66C287.92 52.3 290.06 50.5 292.82 49.26C295.58 48.02 298.82 47.4 302.54 47.4C305.54 47.4 308.2 47.78 310.52 48.54C312.84 49.26 314.78 50.24 316.34 51.48C317.94 52.72 319.16 54.08 320 55.56C320.84 57.04 321.28 58.5 321.32 59.94C321.32 60.3 321.18 60.6 320.9 60.84C320.66 61.08 320.36 61.2 320 61.2H311.24C310.8 61.2 310.46 61.14 310.22 61.02C310.02 60.86 309.84 60.64 309.68 60.36C309.4 59.76 308.98 59.14 308.42 58.5C307.9 57.82 307.16 57.24 306.2 56.76C305.28 56.28 304.06 56.04 302.54 56.04C300.3 56.04 298.52 56.64 297.2 57.84C295.88 59.04 295.16 60.96 295.04 63.6C294.92 67.04 294.92 70.52 295.04 74.04C295.16 76.84 295.9 78.86 297.26 80.1C298.62 81.34 300.44 81.96 302.72 81.96C304.2 81.96 305.52 81.7 306.68 81.18C307.88 80.66 308.82 79.86 309.5 78.78C310.18 77.66 310.52 76.24 310.52 74.52V73.38H304.88C304.44 73.38 304.08 73.24 303.8 72.96C303.52 72.64 303.38 72.26 303.38 71.82V67.38C303.38 66.94 303.52 66.58 303.8 66.3C304.08 65.98 304.44 65.82 304.88 65.82H320C320.44 65.82 320.8 65.98 321.08 66.3C321.36 66.58 321.5 66.94 321.5 67.38V74.22C321.5 77.66 320.72 80.6 319.16 83.04C317.6 85.48 315.38 87.36 312.5 88.68C309.66 89.96 306.34 90.6 302.54 90.6Z" fill="#7BFEFF"/>
<path d="M340.324 90.6C335.604 90.6 331.844 89.32 329.044 86.76C326.244 84.2 324.784 80.4 324.664 75.36C324.664 75.08 324.664 74.72 324.664 74.28C324.664 73.84 324.664 73.5 324.664 73.26C324.784 70.1 325.484 67.4 326.764 65.16C328.084 62.88 329.884 61.16 332.164 60C334.484 58.8 337.184 58.2 340.264 58.2C343.784 58.2 346.684 58.9 348.964 60.3C351.284 61.7 353.024 63.6 354.184 66C355.344 68.4 355.924 71.14 355.924 74.22V75.66C355.924 76.1 355.784 76.46 355.504 76.74C355.224 77.02 354.864 77.16 354.424 77.16H335.224C335.224 77.2 335.224 77.26 335.224 77.34C335.224 77.42 335.224 77.5 335.224 77.58C335.264 78.74 335.464 79.8 335.824 80.76C336.224 81.72 336.784 82.48 337.504 83.04C338.264 83.6 339.184 83.88 340.264 83.88C341.064 83.88 341.724 83.76 342.244 83.52C342.804 83.24 343.264 82.94 343.624 82.62C343.984 82.26 344.264 81.96 344.464 81.72C344.824 81.28 345.104 81.02 345.304 80.94C345.544 80.82 345.904 80.76 346.384 80.76H353.824C354.224 80.76 354.544 80.88 354.784 81.12C355.064 81.36 355.184 81.68 355.144 82.08C355.104 82.76 354.764 83.58 354.124 84.54C353.484 85.5 352.544 86.46 351.304 87.42C350.104 88.34 348.584 89.1 346.744 89.7C344.904 90.3 342.764 90.6 340.324 90.6ZM335.224 71.22H345.364V71.1C345.364 69.78 345.164 68.66 344.764 67.74C344.404 66.78 343.824 66.04 343.024 65.52C342.264 65 341.344 64.74 340.264 64.74C339.224 64.74 338.324 65 337.564 65.52C336.804 66.04 336.224 66.78 335.824 67.74C335.424 68.66 335.224 69.78 335.224 71.1V71.22Z" fill="#7BFEFF"/>
<path d="M375.65 90C373.09 90 370.87 89.6 368.99 88.8C367.15 87.96 365.73 86.68 364.73 84.96C363.73 83.2 363.23 80.94 363.23 78.18V66.66H358.55C358.11 66.66 357.73 66.52 357.41 66.24C357.13 65.96 356.99 65.6 356.99 65.16V60.3C356.99 59.86 357.13 59.5 357.41 59.22C357.73 58.94 358.11 58.8 358.55 58.8H363.23V48.9C363.23 48.46 363.37 48.1 363.65 47.82C363.97 47.54 364.33 47.4 364.73 47.4H371.69C372.13 47.4 372.49 47.54 372.77 47.82C373.05 48.1 373.19 48.46 373.19 48.9V58.8H380.69C381.13 58.8 381.49 58.94 381.77 59.22C382.09 59.5 382.25 59.86 382.25 60.3V65.16C382.25 65.6 382.09 65.96 381.77 66.24C381.49 66.52 381.13 66.66 380.69 66.66H373.19V77.34C373.19 78.7 373.45 79.78 373.97 80.58C374.49 81.38 375.37 81.78 376.61 81.78H381.23C381.67 81.78 382.03 81.92 382.31 82.2C382.59 82.48 382.73 82.84 382.73 83.28V88.5C382.73 88.9 382.59 89.26 382.31 89.58C382.03 89.86 381.67 90 381.23 90H375.65Z" fill="#7BFEFF"/>
<path d="M412.531 90.66C408.771 90.66 405.631 90.08 403.111 88.92C400.591 87.72 398.671 86.18 397.351 84.3C396.071 82.38 395.391 80.32 395.311 78.12C395.311 77.76 395.431 77.46 395.671 77.22C395.911 76.98 396.211 76.86 396.571 76.86H404.611C405.131 76.86 405.531 76.96 405.811 77.16C406.131 77.36 406.371 77.64 406.531 78C406.891 78.92 407.371 79.68 407.971 80.28C408.571 80.88 409.251 81.32 410.011 81.6C410.771 81.88 411.631 82.02 412.591 82.02C413.711 82.02 414.751 81.78 415.711 81.3C416.671 80.82 417.431 80.12 417.991 79.2C418.591 78.24 418.891 77.1 418.891 75.78C418.891 74.58 418.611 73.54 418.051 72.66C417.531 71.78 416.791 71.08 415.831 70.56C414.911 70.04 413.831 69.78 412.591 69.78C411.631 69.78 410.851 69.9 410.251 70.14C409.651 70.34 409.151 70.6 408.751 70.92C408.351 71.24 407.991 71.52 407.671 71.76C407.351 71.96 406.991 72.06 406.591 72.06H398.731C398.371 72.06 398.051 71.94 397.771 71.7C397.531 71.42 397.411 71.1 397.411 70.74L399.571 49.8C399.651 49.2 399.871 48.76 400.231 48.48C400.591 48.16 401.031 48 401.551 48H425.611C426.051 48 426.411 48.14 426.691 48.42C427.011 48.7 427.171 49.06 427.171 49.5V55.14C427.171 55.58 427.011 55.94 426.691 56.22C426.411 56.5 426.051 56.64 425.611 56.64H408.211L407.431 64.38C408.311 63.82 409.331 63.34 410.491 62.94C411.691 62.54 413.331 62.34 415.411 62.34C417.291 62.34 419.091 62.68 420.811 63.36C422.571 64 424.131 64.92 425.491 66.12C426.891 67.32 427.971 68.76 428.731 70.44C429.531 72.08 429.931 73.94 429.931 76.02C429.931 78.86 429.231 81.38 427.831 83.58C426.471 85.78 424.491 87.52 421.891 88.8C419.291 90.04 416.171 90.66 412.531 90.66Z" fill="#7BFEFF"/>
<path d="M450.66 90.6C447.78 90.6 445.28 90.2 443.16 89.4C441.08 88.56 439.34 87.42 437.94 85.98C436.54 84.54 435.48 82.86 434.76 80.94C434.04 79.02 433.62 76.96 433.5 74.76C433.46 73.68 433.42 72.46 433.38 71.1C433.38 69.7 433.38 68.3 433.38 66.9C433.42 65.46 433.46 64.18 433.5 63.06C433.62 60.86 434.04 58.82 434.76 56.94C435.52 55.02 436.6 53.36 438 51.96C439.44 50.52 441.2 49.4 443.28 48.6C445.4 47.8 447.86 47.4 450.66 47.4C453.5 47.4 455.96 47.8 458.04 48.6C460.16 49.4 461.92 50.52 463.32 51.96C464.72 53.36 465.8 55.02 466.56 56.94C467.32 58.82 467.76 60.86 467.88 63.06C467.92 64.18 467.94 65.46 467.94 66.9C467.98 68.3 467.98 69.7 467.94 71.1C467.94 72.46 467.92 73.68 467.88 74.76C467.76 76.96 467.32 79.02 466.56 80.94C465.84 82.86 464.78 84.54 463.38 85.98C462.02 87.42 460.28 88.56 458.16 89.4C456.08 90.2 453.58 90.6 450.66 90.6ZM450.66 81.9C452.74 81.9 454.24 81.24 455.16 79.92C456.12 78.56 456.62 76.74 456.66 74.46C456.74 73.3 456.78 72.08 456.78 70.8C456.82 69.52 456.82 68.24 456.78 66.96C456.78 65.68 456.74 64.5 456.66 63.42C456.62 61.22 456.12 59.44 455.16 58.08C454.24 56.72 452.74 56.02 450.66 55.98C448.62 56.02 447.12 56.72 446.16 58.08C445.24 59.44 444.74 61.22 444.66 63.42C444.66 64.5 444.64 65.68 444.6 66.96C444.6 68.24 444.6 69.52 444.6 70.8C444.64 72.08 444.66 73.3 444.66 74.46C444.74 76.74 445.26 78.56 446.22 79.92C447.18 81.24 448.66 81.9 450.66 81.9Z" fill="#7BFEFF"/>
<path d="M476.022 90C475.102 90 474.642 89.6 474.642 88.8C474.642 88.56 474.722 88.34 474.882 88.14L504.522 49.14C504.802 48.78 505.082 48.5 505.362 48.3C505.642 48.1 506.062 48 506.622 48H510.882C511.802 48 512.262 48.4 512.262 49.2C512.262 49.44 512.182 49.66 512.022 49.86L482.382 88.86C482.102 89.22 481.822 89.5 481.542 89.7C481.262 89.9 480.842 90 480.282 90H476.022ZM506.202 90.3C503.482 90.3 501.302 89.58 499.662 88.14C498.062 86.7 497.162 84.78 496.962 82.38C496.922 81.34 496.902 80.42 496.902 79.62C496.902 78.82 496.922 77.86 496.962 76.74C497.122 74.3 497.982 72.36 499.542 70.92C501.142 69.44 503.362 68.7 506.202 68.7C509.082 68.7 511.302 69.44 512.862 70.92C514.422 72.36 515.282 74.3 515.442 76.74C515.522 77.86 515.562 78.82 515.562 79.62C515.562 80.42 515.522 81.34 515.442 82.38C515.282 84.78 514.382 86.7 512.742 88.14C511.102 89.58 508.922 90.3 506.202 90.3ZM506.202 85.02C506.882 85.02 507.402 84.88 507.762 84.6C508.162 84.28 508.462 83.9 508.662 83.46C508.862 82.98 508.982 82.5 509.022 82.02C509.102 81.1 509.142 80.26 509.142 79.5C509.142 78.74 509.102 77.92 509.022 77.04C508.982 76.28 508.742 75.6 508.302 75C507.902 74.36 507.202 74.04 506.202 74.04C505.242 74.04 504.542 74.36 504.102 75C503.702 75.6 503.482 76.28 503.442 77.04C503.402 77.92 503.382 78.74 503.382 79.5C503.382 80.26 503.402 81.1 503.442 82.02C503.482 82.5 503.582 82.98 503.742 83.46C503.942 83.9 504.242 84.28 504.642 84.6C505.042 84.88 505.562 85.02 506.202 85.02ZM480.822 69.18C478.062 69.18 475.862 68.48 474.222 67.08C472.622 65.64 471.742 63.72 471.582 61.32C471.502 60.28 471.462 59.36 471.462 58.56C471.502 57.76 471.542 56.8 471.582 55.68C471.702 53.28 472.542 51.36 474.102 49.92C475.702 48.44 477.942 47.7 480.822 47.7C483.702 47.7 485.922 48.44 487.482 49.92C489.042 51.36 489.882 53.28 490.002 55.68C490.082 56.8 490.122 57.76 490.122 58.56C490.122 59.36 490.082 60.28 490.002 61.32C489.882 63.72 489.002 65.64 487.362 67.08C485.722 68.48 483.542 69.18 480.822 69.18ZM480.822 63.96C481.462 63.96 481.982 63.82 482.382 63.54C482.782 63.26 483.082 62.9 483.282 62.46C483.482 61.98 483.582 61.5 483.582 61.02C483.662 60.1 483.702 59.26 483.702 58.5C483.702 57.74 483.662 56.92 483.582 56.04C483.542 55.28 483.302 54.6 482.862 54C482.462 53.36 481.782 53.04 480.822 53.04C479.822 53.04 479.122 53.36 478.722 54C478.322 54.6 478.082 55.28 478.002 56.04C477.962 56.92 477.942 57.74 477.942 58.5C477.942 59.26 477.962 60.1 478.002 61.02C478.082 61.5 478.202 61.98 478.362 62.46C478.522 62.9 478.802 63.26 479.202 63.54C479.602 63.82 480.142 63.96 480.822 63.96Z" fill="#7BFEFF"/>
<path d="M548.233 90.6C544.553 90.6 541.353 90 538.633 88.8C535.913 87.6 533.793 85.8 532.273 83.4C530.753 80.96 529.913 77.92 529.753 74.28C529.713 72.56 529.693 70.84 529.693 69.12C529.693 67.36 529.713 65.62 529.753 63.9C529.913 60.3 530.753 57.28 532.273 54.84C533.833 52.36 535.973 50.5 538.693 49.26C541.453 48.02 544.633 47.4 548.233 47.4C551.873 47.4 555.053 48.02 557.773 49.26C560.493 50.5 562.633 52.36 564.193 54.84C565.753 57.28 566.593 60.3 566.713 63.9C566.793 65.62 566.833 67.36 566.833 69.12C566.833 70.84 566.793 72.56 566.713 74.28C566.593 77.92 565.753 80.96 564.193 83.4C562.673 85.8 560.553 87.6 557.833 88.8C555.113 90 551.913 90.6 548.233 90.6ZM548.233 81.96C550.353 81.96 552.073 81.32 553.393 80.04C554.753 78.76 555.473 76.72 555.553 73.92C555.633 72.16 555.673 70.5 555.673 68.94C555.673 67.38 555.633 65.76 555.553 64.08C555.473 62.2 555.113 60.68 554.473 59.52C553.873 58.32 553.033 57.44 551.953 56.88C550.873 56.32 549.633 56.04 548.233 56.04C546.873 56.04 545.653 56.32 544.573 56.88C543.493 57.44 542.633 58.32 541.993 59.52C541.353 60.68 540.993 62.2 540.913 64.08C540.873 65.76 540.853 67.38 540.853 68.94C540.853 70.5 540.873 72.16 540.913 73.92C541.033 76.72 541.753 78.76 543.073 80.04C544.433 81.32 546.153 81.96 548.233 81.96Z" fill="#7BFEFF"/>
<path d="M573.488 90C573.048 90 572.688 89.86 572.408 89.58C572.128 89.26 571.988 88.9 571.988 88.5V49.5C571.988 49.06 572.128 48.7 572.408 48.42C572.688 48.14 573.048 48 573.488 48H601.088C601.528 48 601.888 48.14 602.168 48.42C602.448 48.7 602.588 49.06 602.588 49.5V55.56C602.588 56 602.448 56.36 602.168 56.64C601.888 56.92 601.528 57.06 601.088 57.06H582.548V65.88H599.888C600.328 65.88 600.688 66.04 600.968 66.36C601.248 66.64 601.388 67 601.388 67.44V73.44C601.388 73.84 601.248 74.2 600.968 74.52C600.688 74.8 600.328 74.94 599.888 74.94H582.548V88.5C582.548 88.9 582.408 89.26 582.128 89.58C581.848 89.86 581.488 90 581.048 90H573.488Z" fill="#7BFEFF"/>
<path d="M608.778 90C608.338 90 607.978 89.86 607.698 89.58C607.418 89.26 607.278 88.9 607.278 88.5V49.5C607.278 49.06 607.418 48.7 607.698 48.42C607.978 48.14 608.338 48 608.778 48H636.378C636.818 48 637.178 48.14 637.458 48.42C637.738 48.7 637.878 49.06 637.878 49.5V55.56C637.878 56 637.738 56.36 637.458 56.64C637.178 56.92 636.818 57.06 636.378 57.06H617.838V65.88H635.178C635.618 65.88 635.978 66.04 636.258 66.36C636.538 66.64 636.678 67 636.678 67.44V73.44C636.678 73.84 636.538 74.2 636.258 74.52C635.978 74.8 635.618 74.94 635.178 74.94H617.838V88.5C617.838 88.9 617.698 89.26 617.418 89.58C617.138 89.86 616.778 90 616.338 90H608.778Z" fill="#7BFEFF"/>
<defs>
<linearGradient id="paint0_linear_138_493" x1="460.908" y1="110.87" x2="460.908" y2="12.2073" gradientUnits="userSpaceOnUse">
<stop stop-color="#058B8C"/>
<stop offset="1" stop-color="#006061"/>
</linearGradient>
<linearGradient id="paint1_linear_138_493" x1="173706" y1="1598.2" x2="173706" y2="5576.4" gradientUnits="userSpaceOnUse">
<stop stop-color="#005858"/>
<stop offset="1" stop-color="#058B8C"/>
</linearGradient>
</defs>
</svg>
